HIERARCHY
ROOT Hips
{
	OFFSET 0.00000 0.00000 0.00000
	CHANNELS 6 Xposition Yposition Zposition Zrotation Yrotation Xrotation 
	JOINT LHipJoint
	{
		OFFSET 0 0 0
		CHANNELS 3 Zrotation Yrotation Xrotation
		JOINT LeftUpLeg
		{
			OFFSET 1.80322 -1.53100 0.99595
			CHANNELS 3 Zrotation Yrotation Xrotation
			JOINT LeftLeg
			{
				OFFSET 2.25177 -6.18669 0.00000
				CHANNELS 3 Zrotation Yrotation Xrotation
				JOINT LeftFoot
				{
					OFFSET 2.26601 -6.22582 0.00000
					CHANNELS 3 Zrotation Yrotation Xrotation
					JOINT LeftToeBase
					{
						OFFSET 0.23701 -0.65119 2.15848
						CHANNELS 3 Zrotation Yrotation Xrotation
						End Site
						{
							OFFSET 0.00000 -0.00000 1.12949
						}
					}
				}
			}
		}
	}
	JOINT RHipJoint
	{
		OFFSET 0 0 0
		CHANNELS 3 Zrotation Yrotation Xrotation
		JOINT RightUpLeg
		{
			OFFSET -1.93977 -1.53100 0.99595
			CHANNELS 3 Zrotation Yrotation Xrotation
			JOINT RightLeg
			{
				OFFSET -2.28036 -6.26523 0.00000
				CHANNELS 3 Zrotation Yrotation Xrotation
				JOINT RightFoot
				{
					OFFSET -2.25490 -6.19528 0.00000
					CHANNELS 3 Zrotation Yrotation Xrotation
					JOINT RightToeBase
					{
						OFFSET -0.28375 -0.77960 2.23137
						CHANNELS 3 Zrotation Yrotation Xrotation
						End Site
						{
							OFFSET -0.00000 -0.00000 1.17899
						}
					}
				}
			}
		}
	}
	JOINT LowerBack
	{
		OFFSET 0 0 0
		CHANNELS 3 Zrotation Yrotation Xrotation
		JOINT Spine
		{
			OFFSET -0.00088 2.12090 -0.02806
			CHANNELS 3 Zrotation Yrotation Xrotation
			JOINT Spine1
			{
				OFFSET -0.00286 2.09666 0.12974
				CHANNELS 3 Zrotation Yrotation Xrotation
				JOINT Neck
				{
					OFFSET 0 0 0
					CHANNELS 3 Zrotation Yrotation Xrotation
					JOINT Neck1
					{
						OFFSET 0.07328 1.83526 0.07290
						CHANNELS 3 Zrotation Yrotation Xrotation
						JOINT Head
						{
							OFFSET -0.06683 1.74974 -0.49542
							CHANNELS 3 Zrotation Yrotation Xrotation
							End Site
							{
								OFFSET -0.03398 1.85163 -0.17573
							}
						}
					}
				}
				JOINT LeftShoulder
				{
					OFFSET 0 0 0
					CHANNELS 3 Zrotation Yrotation Xrotation
					JOINT LeftArm
					{
						OFFSET 3.02113 1.18018 0.40602
						CHANNELS 3 Zrotation Yrotation Xrotation
						JOINT LeftForeArm
						{
							OFFSET 4.58538 -0.00000 -0.00000
							CHANNELS 3 Zrotation Yrotation Xrotation
							JOINT LeftHand
							{
								OFFSET 2.68935 -0.00000 -0.00000
								CHANNELS 3 Zrotation Yrotation Xrotation
								JOINT LeftFingerBase
								{
									OFFSET 0 0 0
									CHANNELS 3 Zrotation Yrotation Xrotation
									JOINT LeftHandIndex1
									{
										OFFSET 0.58506 -0.00000 -0.00000
										CHANNELS 3 Zrotation Yrotation Xrotation
										End Site
										{
											OFFSET 0.47169 -0.00000 -0.00000
										}
									}
								}
								JOINT LThumb
								{
									OFFSET 0 0 0
									CHANNELS 3 Zrotation Yrotation Xrotation
									End Site
									{
										OFFSET 0.47889 -0.00000 0.47889
									}
								}
							}
						}
					}
				}
				JOINT RightShoulder
				{
					OFFSET 0 0 0
					CHANNELS 3 Zrotation Yrotation Xrotation
					JOINT RightArm
					{
						OFFSET -2.95074 1.18843 0.31430
						CHANNELS 3 Zrotation Yrotation Xrotation
						JOINT RightForeArm
						{
							OFFSET -4.47450 -0.00000 -0.00000
							CHANNELS 3 Zrotation Yrotation Xrotation
							JOINT RightHand
							{
								OFFSET -2.93896 -0.00000 -0.00000
								CHANNELS 3 Zrotation Yrotation Xrotation
								JOINT RightFingerBase
								{
									OFFSET 0 0 0
									CHANNELS 3 Zrotation Yrotation Xrotation
									JOINT RightHandIndex1
									{
										OFFSET -0.40509 -0.00000 -0.00000
										CHANNELS 3 Zrotation Yrotation Xrotation
										End Site
										{
											OFFSET -0.32660 -0.00000 -0.00000
										}
									}
								}
								JOINT RThumb
								{
									OFFSET 0 0 0
									CHANNELS 3 Zrotation Yrotation Xrotation
									End Site
									{
										OFFSET -0.33158 -0.00000 0.33158
									}
								}
							}
						}
					}
				}
			}
		}
	}
}
MOTION
Frames: 14
Frame Time: 0.0425532
0.00 0.00 0.00 5.8091 -2.1856 15.0272 0.0000 0.0000 0.0000 -8.3878 -4.2132 8.7315 0.0000 0.0000 0.0000 -0.2271 14.6173 -18.0541 0.7855 -5.6581 -15.7954 0.0000 0.0000 0.0000 3.3243 7.3082 -47.3042 -9.6157 -17.1880 58.1960 -1.5358 -2.4940 -24.4243 -0.0819 1.8465 -5.0815 -1.6167 -2.2286 0.4334 0.5909 -3.0365 -6.2980 1.7059 -1.4017 -6.6737 -0.3590 -5.2122 -12.9835 0.2079 -7.3593 23.7957 -0.7588 -3.4392 9.6869 -0.0000 0.0000 0.0000 -79.2801 -15.9384 75.3429 146.6442 -43.6017 -106.3332 -0.0000 -0.0000 3.2334 27.0083 5.1733 2.6315 -7.1250 0.0000 -0.0000 0.2731 35.7821 -0.0619 -0.0000 0.0000 0.0000 47.3338 36.3771 -9.8644 -60.9876 56.5674 -35.1640 0.0000 0.0000 7.0835 -41.1680 9.5416 -8.2477 7.1250 -0.0000 -0.0000 -9.9153 -17.5052 -6.5733
0.00 0.00 0.00 3.2670 -0.5322 12.1972 0.0000 0.0000 0.0000 -7.8948 -5.6096 1.1609 0.7127 5.3954 15.0399 0.6569 8.8122 -20.9561 1.3533 -7.3641 -20.7985 0.0000 0.0000 0.0000 3.6207 7.6386 -40.6557 -7.1497 -15.4567 49.4382 -0.7053 -6.0232 -19.1803 -0.1681 2.6410 -7.2809 -0.0710 -1.1597 0.7624 0.1610 -1.5543 -5.9356 0.3081 -0.7635 -6.5834 1.6911 -4.5311 -13.3796 0.9782 -7.1646 25.4737 -0.8501 -3.0290 10.3228 0.0000 0.0000 0.0000 -80.9104 -20.1238 77.3819 142.1950 -46.7143 -103.1765 -0.0000 -0.0000 2.8365 25.8017 6.3688 3.0698 -7.1250 0.0000 -0.0000 -0.7993 37.0460 0.1564 0.0000 0.0000 0.0000 65.9592 35.3725 25.6658 -73.2707 58.9156 -45.5647 0.0000 -0.0000 -1.8283 -23.6294 3.6031 -1.5749 7.1250 -0.0000 -0.0000 2.2688 -26.0470 1.0429
0.00 0.00 0.00 0.6603 -3.2304 13.6417 0.0000 0.0000 0.0000 -14.1367 -7.8385 4.5299 0.0000 0.0000 0.0000 -0.4565 16.1394 -17.6210 0.2172 -3.0001 -8.2789 0.0000 0.0000 0.0000 -4.2103 18.0084 -32.4845 -1.6287 -8.0457 22.8530 1.1729 -20.5862 1.4531 -0.0081 0.5803 -1.5947 -3.0781 0.3490 -1.1898 0.3603 0.4275 -5.3380 2.0832 0.3561 -4.8760 -0.8913 -7.5572 -11.2354 3.2467 -11.4971 26.2518 -0.1269 -5.0137 10.5067 0.0000 -0.0000 0.0000 -82.9849 -19.9508 77.8846 139.3676 -48.4402 -101.0889 -0.0000 -0.0000 7.1549 27.2182 3.8960 2.0015 -7.1250 0.0000 -0.0000 0.4840 34.3587 -0.1264 0.0000 -0.0000 0.0000 91.6710 31.8290 63.2036 -117.1203 57.0297 -83.2527 0.0000 -0.0000 -19.6572 -11.9126 -2.7469 0.5793 7.1250 -0.0000 -0.0000 11.8477 -32.6255 3.6584
0.00 0.00 0.00 2.3473 -1.2787 14.4798 0.0000 0.0000 0.0000 -9.7710 -7.2135 7.5707 0.0000 0.0000 0.0000 -0.1043 15.5750 -21.0134 0.4362 -4.2381 -11.7474 0.0000 0.0000 0.0000 1.5587 9.5209 -41.5249 -5.2142 -13.6211 41.7402 -0.3752 -2.9841 -13.0559 -0.1519 2.5115 -6.9215 -2.4577 -1.2107 -0.1802 -0.3810 -1.7248 -5.8268 1.0635 -0.7468 -5.8769 -1.8542 -7.7301 -11.0868 3.1773 -11.6380 27.5961 -0.0392 -5.1505 11.0425 0.0000 -0.0000 0.0000 -76.9868 -12.6797 77.6275 142.5572 -46.4797 -103.4397 -0.0000 -0.0000 8.2674 27.4430 3.6092 1.8724 -7.1250 0.0000 -0.0000 0.6750 34.0446 -0.1814 0.0000 -0.0000 0.0000 69.8139 35.6726 56.9149 -124.9754 54.8314 -89.7639 0.0000 -0.0000 -18.8246 -9.5853 -3.4123 0.5759 7.1250 -0.0000 -0.0000 13.8035 -33.2029 4.0932
0.00 0.00 0.00 4.2281 0.3851 17.2950 0.0000 0.0000 0.0000 -7.9219 -8.1577 6.0474 0.0000 0.0000 0.0000 -0.0525 16.1652 -22.4134 0.3431 -3.7637 -10.4127 0.0000 0.0000 0.0000 2.6030 6.7443 -49.3545 -8.0906 -16.1855 52.8882 -1.0360 0.9753 -18.9390 -0.0882 1.9154 -5.2718 -1.9270 -1.9970 0.3593 -0.6537 -2.7909 -5.7033 0.5537 -1.3104 -6.0554 -2.4265 -8.2759 -12.1817 4.1632 -12.3841 25.6615 0.2785 -5.4514 10.6709 0.0000 0.0000 0.0000 -72.4394 -5.1757 75.1174 139.7521 -48.2161 -101.3761 -0.0000 -0.0000 4.7930 25.3384 3.2835 1.5535 -7.1250 0.0000 -0.0000 -1.0423 33.6105 0.2911 0.0000 0.0000 0.0000 51.6289 25.6225 53.1559 -104.3601 59.2063 -72.4031 0.0000 -0.0000 -19.3225 -7.7294 -0.1095 0.0149 7.1250 -0.0000 -0.0000 14.7366 -29.9113 5.5927
0.00 0.00 0.00 5.2294 0.7157 19.1261 0.0000 0.0000 0.0000 -7.1379 -8.1234 4.6020 0.0000 0.0000 0.0000 0.0738 15.6321 -22.9082 0.2854 -3.4356 -9.4940 0.0000 0.0000 0.0000 2.5468 6.6016 -53.1818 -9.4169 -17.0686 57.5210 -1.3611 1.7602 -21.5540 -0.0593 1.5711 -4.3217 -1.8544 -1.7743 0.9683 -0.4084 -2.4854 -5.3656 0.7661 -1.1560 -6.0450 -3.0940 -8.9005 -12.8073 4.6405 -13.0138 23.3762 0.4722 -5.7879 10.0664 0.0000 -0.0000 0.0000 -71.6208 -1.7973 74.2083 137.4202 -49.5262 -99.6195 -0.0000 -0.0000 5.1373 24.7324 3.4228 1.5753 -7.1250 0.0000 -0.0000 -1.5438 33.7443 0.4263 0.0000 -0.0000 0.0000 44.1838 17.7473 53.0587 -72.6116 58.8261 -45.0005 0.0000 -0.0000 -17.5233 -12.3594 4.1365 -0.9055 7.1250 -0.0000 -0.0000 10.7460 -25.7252 5.1016
0.00 0.00 0.00 0.0373 10.1916 19.2798 0.0000 0.0000 0.0000 -7.4400 -13.5604 -10.5142 0.6484 5.1510 14.3398 0.4268 10.4687 -20.2357 0.7291 -5.4555 -15.2124 0.0000 0.0000 0.0000 -4.1769 13.8787 -37.7233 -1.9467 -8.7542 25.0293 1.8839 -24.4776 -1.6578 -0.0619 1.6057 -4.4173 1.3218 0.1360 4.4456 0.6980 0.3318 -4.2090 -0.0470 0.1196 -6.8809 8.0485 0.9321 -13.2727 -4.0934 0.3154 13.9229 -2.6021 0.2404 6.4388 0.0000 0.0000 0.0000 -73.6271 -13.1010 65.2858 102.6021 -59.3913 -70.8915 -0.0000 0.0000 -3.5326 12.3201 11.2422 2.4381 -7.1250 0.0000 -0.0000 -13.1063 41.1208 1.2786 0.0000 0.0000 0.0000 70.9934 4.5393 50.5269 -46.2540 51.3682 -23.2143 0.0000 -0.0000 -15.3691 -9.8259 -10.5728 1.8202 7.1250 -0.0000 -0.0000 15.0828 -40.2442 1.8158
0.00 0.00 0.00 -2.6845 -9.3460 13.0339 0.0000 0.0000 0.0000 -18.6971 -9.7375 -11.5334 2.1412 9.1542 26.2789 1.3788 14.0948 -31.1978 0.0436 1.3480 3.7068 0.0000 0.0000 0.0000 15.9661 5.9431 -20.6303 -3.9573 -12.1034 36.0988 -1.1421 -6.0394 -23.2133 -0.3202 3.6374 -10.0588 1.0341 0.4618 -2.9402 0.8508 0.6358 -6.2287 0.2932 0.2858 -4.7814 13.3986 5.8954 -10.0016 -8.6366 8.2630 32.0644 -4.5329 4.2091 13.4038 0.0000 -0.0000 0.0000 -82.4157 7.5434 24.8554 42.3892 -49.4234 -20.2357 -0.0000 0.0000 -6.7372 7.4877 20.7301 2.6637 -7.1250 0.0000 -0.0000 -20.7086 49.7035 -2.4969 0.0000 -0.0000 0.0000 81.9547 6.4814 20.4075 -24.0213 35.1868 -7.7188 0.0000 -0.0000 -37.7262 -12.3372 -18.5526 3.9808 7.1250 -0.0000 -0.0000 15.2930 -48.3291 -1.2838
0.00 0.00 0.00 -0.6722 -9.2322 11.6797 0.0000 0.0000 0.0000 -20.8708 -7.5056 -8.9057 1.6873 8.1819 23.2679 1.1548 13.3895 -29.0950 0.0010 0.2007 0.5513 0.0000 0.0000 0.0000 10.7213 5.6263 -32.8977 -8.4366 -16.4312 54.1204 -0.7087 -0.9520 -16.2762 -0.3773 3.9449 -10.9218 -2.0343 0.7507 -1.0740 -0.2138 0.9477 -5.5245 0.8847 0.5559 -5.1352 13.3894 5.3978 -10.2610 -7.8836 7.2583 32.3522 -4.3880 3.8535 13.4069 -0.0000 0.0000 0.0000 -77.6980 -1.9358 32.7314 77.4143 -59.3929 -49.1227 -0.0000 0.0000 -7.8488 12.7574 20.0140 4.4310 -7.1250 0.0000 -0.0000 -15.4636 49.8178 -1.8765 -0.0000 0.0000 0.0000 81.6893 19.4939 28.0716 -33.6926 43.8557 -13.8996 0.0000 -0.0000 -46.2117 -14.5683 -21.0290 5.3279 7.1250 -0.0000 -0.0000 14.1460 -51.0996 -2.1625
0.00 0.00 0.00 -0.9717 -7.7957 11.8568 0.0000 0.0000 0.0000 -19.8652 -7.3051 -7.9414 1.5436 7.8426 22.2370 1.1334 12.7575 -28.3766 0.0050 -0.4563 -1.2539 0.0000 0.0000 0.0000 9.0916 6.4730 -36.8066 -7.6335 -15.8430 51.2316 -0.5140 -1.5027 -14.1708 -0.2961 3.4991 -9.6715 -2.0090 0.6944 -0.3050 -0.4386 0.8497 -5.3025 0.6333 0.5009 -5.3328 13.2734 5.1103 -10.4701 -7.6729 6.7534 32.0965 -4.3489 3.6345 13.2555 0.0000 -0.0000 0.0000 -76.6206 -7.0906 38.0774 100.6198 -59.5695 -69.1837 -0.0000 0.0000 -7.0791 15.3503 18.5123 4.9813 -7.1250 0.0000 -0.0000 -12.4576 48.7230 -1.1605 0.0000 -0.0000 0.0000 82.4630 25.8211 35.1414 -42.3128 49.3820 -20.1777 0.0000 -0.0000 -47.4955 -13.2506 -19.7299 4.5452 7.1250 -0.0000 -0.0000 14.8850 -49.6151 -1.7279
0.00 0.00 0.00 -1.3469 -5.3937 12.2651 0.0000 0.0000 0.0000 -18.2759 -7.3659 -6.7599 1.3387 7.3261 20.6850 1.0854 11.9238 -27.2922 0.0395 -1.2825 -3.5264 0.0000 0.0000 0.0000 6.7140 8.3075 -37.5221 -4.9756 -13.3563 40.7171 -0.1034 -4.9872 -9.8577 -0.0941 1.9780 -5.4447 -2.0550 0.5101 0.6773 -0.4908 0.5782 -5.1545 0.6087 0.3697 -5.7317 12.8779 4.7075 -10.9565 -7.2566 6.0410 31.6676 -4.2002 3.3082 13.0459 -0.0000 -0.0000 0.0000 -76.8403 -11.5758 45.2233 120.4760 -56.1818 -86.0546 -0.0000 0.0000 -6.3875 19.2017 16.1201 5.5232 -7.1250 0.0000 -0.0000 -8.1317 46.8320 -0.3700 -0.0000 -0.0000 0.0000 83.0461 31.0977 42.7563 -54.3840 54.6176 -29.7131 0.0000 -0.0000 -47.2201 -12.9882 -19.2221 4.3426 7.1250 -0.0000 -0.0000 14.9365 -49.0782 -1.5333
0.00 0.00 0.00 2.8173 23.3541 32.9118 0.0000 0.0000 0.0000 12.8451 -11.1551 -14.1054 0.0000 -0.0000 -0.0000 0.6634 5.2615 -18.1919 0.8253 -5.7961 -16.1941 0.0000 0.0000 0.0000 10.2549 1.7402 -77.2387 -13.4952 -18.9537 70.6567 -1.4229 -2.5005 -23.5562 -0.0637 1.6278 -4.4781 -2.6199 1.2620 12.2298 -1.7129 1.1342 -1.8982 -0.5757 0.6327 -8.9344 3.5323 -2.6471 -18.1530 -0.7409 -4.2871 7.7564 -1.2016 -2.0385 5.1675 0.0000 -0.0000 0.0000 -83.4322 -27.9734 89.5860 148.9315 -41.7918 -107.8846 -0.0000 -0.0000 0.0429 26.6703 6.4268 3.2180 -7.1250 0.0000 -0.0000 -0.0647 37.1641 0.0125 0.0000 -0.0000 0.0000 86.8111 40.4694 52.9769 -14.9059 24.0148 -3.1875 0.0000 0.0000 16.0885 -32.5093 6.5075 -4.1311 7.1250 -0.0000 -0.0000 -4.2107 -22.2836 -2.3056
0.00 0.00 0.00 2.1372 20.3878 27.1068 0.0000 0.0000 0.0000 4.0150 -13.4121 -16.8642 0.8437 5.8587 16.3749 0.9636 4.8324 -20.8929 1.7875 -8.4087 -23.9623 0.0000 0.0000 0.0000 3.4668 3.5867 -61.8681 -9.1284 -16.8897 56.5333 -0.2467 -9.7489 -17.4114 -0.0521 1.4736 -4.0530 0.7626 -0.0925 9.2482 -0.6220 -0.0766 -3.2270 -1.0767 -0.0978 -8.6259 4.7370 -0.5947 -16.7716 -3.2264 -1.4585 7.8401 -1.9073 -0.7957 5.0107 -0.0000 -0.0000 0.0000 -75.0579 -24.6988 70.7140 132.8270 -51.7897 -96.0657 -0.0000 -0.0000 1.2238 19.8480 6.9792 2.5114 -7.1250 0.0000 -0.0000 -5.8976 37.3371 1.1169 -0.0000 -0.0000 0.0000 75.5109 24.3273 57.2806 -35.4867 45.1565 -15.1574 0.0000 -0.0000 -6.9808 -16.3838 -2.0867 0.6134 7.1250 -0.0000 -0.0000 8.2004 -32.0840 2.6155
0.00 0.00 0.00 -1.7570 11.7837 23.0476 0.0000 0.0000 0.0000 -5.3314 -13.1186 -13.9861 1.0641 6.5584 18.4134 0.7440 9.5991 -22.4695 0.7977 -5.7006 -15.9182 0.0000 0.0000 0.0000 -5.3579 16.7805 -41.4846 -1.6715 -8.1453 23.1564 2.9399 -30.4524 -0.6652 -0.0437 -1.3496 3.7113 0.5421 0.4866 5.5283 0.1316 0.7138 -3.9786 -0.2504 0.3294 -7.2597 7.6192 1.0581 -14.9666 -4.5559 0.4689 11.2208 -2.6445 0.2018 5.8732 0.0000 0.0000 0.0000 -71.2963 -9.6618 60.6358 80.1186 -59.6278 -51.4532 -0.0000 0.0000 -2.3714 14.9421 11.5031 3.0463 -7.1250 0.0000 -0.0000 -10.8861 41.6236 0.9188 0.0000 0.0000 0.0000 71.8635 3.0400 47.8201 -37.1901 46.3141 -16.3773 0.0000 -0.0000 -6.1412 -10.7903 -2.8382 0.5407 7.1250 -0.0000 -0.0000 12.7538 -32.6791 3.9332
